<svg xmlns="http://www.w3.org/2000/svg" viewBox="0 0 192 192" width="192" height="192"><path fill="#4CAF50" d="M96 0a96 96 0 1 0 0 192A96 96 0 1 0 96 0z"/><path fill="#fff" d="M117.2 45.3c-10-5-21.3-7.3-32.8-6.5-21.3 1.4-39.5 15-46.7 34.9-3.3 9-4.8 18.6-4.5 28.2 1.1 20.2 14.3 37.9 32.8 44.5 10 3.6 20.8 4.5 31.4 2.6 21.3-3.8 38-20.6 41.8-41.8 1.8-10.1.9-20.5-2.6-30.2-7.3-20.1-23.8-34.6-44.4-36.2-1.6-.1-3.3-.2-4.9-.2zm-1.4 15.7c14.6 1.2 27.5 10.6 31.9 24.5 2.5 7.8 2.9 16.1 1.4 24.1-2.8 15.2-14.3 27.6-29.5 31.4-7.3 1.8-14.9 1.5-22.1-.9-14.5-4.8-25.3-17.3-28.5-32.2-1.5-7 .2-14.2 3.5-20.6 6.8-13.2 19.3-22.2 33.3-23.6 3.3-.3 6.7-.3 10 .3z"/></svg>