<svg xmlns="http://www.w3.org/2000/svg" viewBox="0 0 512 512" width="512" height="512"><path fill="#4CAF50" d="M256 0C114.6 0 0 114.6 0 256s114.6 256 256 256 256-114.6 256-256S397.4 0 256 0z"/><path fill="#fff" d="M312.5 120.8c-26.6-13.3-56.8-19.5-87.5-17.4-56.8 3.8-105.3 40-124.5 93-8.8 24-12.8 49.6-12 75.2 3 53.8 38.1 101 87.5 118.6 26.6 9.6 55.5 12 83.7 7 56.8-10.1 101.3-55 111.5-111.5 4.8-26.9 2.4-54.7-6.9-80.5-19.5-53.6-63.5-92.2-118.1-96.9-4.3-.3-8.8-.5-13.2-.5zm-3.7 41.8c38.9 3.2 73.3 28.3 85.1 65.3 6.6 20.8 7.7 42.9 3.7 64.3-7.5 40.5-38.1 73.6-78.7 83.7-19.5 4.8-40 4-59-2.4-38.7-12.8-67.5-46.1-76-85.9-4-18.6.5-37.9 9.3-54.9 18.1-35.2 51.5-59.2 88.8-62.9 8.8-.8 17.8-.8 26.8.8z"/></svg>